<svg xmlns="http://www.w3.org/2000/svg" width="430" height="430" style="width:100%;height:100%;transform:translate3d(0,0,0);content-visibility:visible" viewBox="0 0 430 430"><defs><clipPath id="a"><path d="M0 0h430v430H0z"/></clipPath><clipPath id="b"><path d="M0 0h430v430H0z"/></clipPath></defs><g clip-path="url(#a)"><g fill="none" stroke-linecap="round" stroke-linejoin="round" stroke-width="12.04" clip-path="url(#b)" style="display:block"><path stroke="#08A88A" d="M-173.867 15.325H18.662m-.005 0-37.314 30.65m37.314-30.65-37.314-30.65" class="secondary" style="display:block" transform="translate(201.867 194.675)"/><path stroke="#121331" d="M-269.745-138.299v-58.329H-50.84V.004h-125.712m-57.418 0h-35.775v-68.802M28.595 0h21.882v-73.394h-101.32V0h21.868m79.452-73.394h-101.32v-78.849h39.987c15.02 0 28.674 8.69 34.998 22.275l26.335 56.574zM-176.555 0c0 15.855-12.853 28.708-28.708 28.708-15.855 0-28.708-12.853-28.708-28.708 0-15.855 12.853-28.708 28.708-28.708 15.855 0 28.708 12.853 28.708 28.708zM28.708 0c0 15.855-12.853 28.708-28.708 28.708-15.855 0-28.708-12.853-28.708-28.708 0-15.855 12.853-28.708 28.708-28.708 15.855 0 28.708 12.853 28.708 28.708z" class="primary" style="display:block" transform="translate(324.643 313.536)"/></g></g></svg>